<svg data-v-423bf9ae="" xmlns="http://www.w3.org/2000/svg" viewBox="0 0 372.7650963655524 60"
     class="font"><!----><!---->
  <defs data-v-423bf9ae="">
    <linearGradient data-v-423bf9ae="" gradientTransform="rotate(25)" id="ea2fc061-8920-40b0-8378-87c4c6eed1da" x1="0%"
                    y1="0%" x2="100%" y2="0%">
      <stop data-v-423bf9ae="" offset="0%" style="stop-color: rgb(0, 118, 221); stop-opacity: 1;"></stop>
      <stop data-v-423bf9ae="" offset="100%" style="stop-color: rgb(0, 205, 233); stop-opacity: 1;"></stop>
    </linearGradient>
  </defs>
  <g data-v-423bf9ae="" id="bba17380-b0bc-42f8-a4ed-71611ec2d790" fill="url(#ea2fc061-8920-40b0-8378-87c4c6eed1da)"
     transform="matrix(5.577908720429519,0,0,5.577908720429519,-6.247263246877026,-0.35296799372652643)">
    <path d="M6.43 2.23L6.43 2.23L3.46 2.23C3.19 2.23 2.98 2.42 2.98 2.69L2.98 4.56C2.98 4.82 3.19 5.03 3.46 5.03L5.56 5.03C5.82 5.03 6.03 4.82 6.03 4.56C6.03 4.30 5.82 4.09 5.56 4.09L3.92 4.09L3.92 3.15L6.43 3.15C6.69 3.15 6.90 2.94 6.90 2.69C6.90 2.42 6.69 2.23 6.43 2.23ZM5.56 5.96L5.56 5.96L3.46 5.96C3.19 5.96 2.98 6.17 2.98 6.43L2.98 8.30C2.98 8.55 3.19 8.76 3.46 8.76L6.43 8.76C6.69 8.76 6.90 8.55 6.90 8.30C6.90 8.04 6.69 7.83 6.43 7.83L3.92 7.83L3.92 6.90L5.56 6.90C5.82 6.90 6.03 6.69 6.03 6.43C6.03 6.17 5.82 5.96 5.56 5.96ZM6.43 9.70L6.43 9.70L2.06 9.70L2.06 1.29L6.43 1.29C6.69 1.29 6.90 1.08 6.90 0.81C6.90 0.56 6.69 0.35 6.43 0.35L1.58 0.35C1.33 0.35 1.12 0.56 1.12 0.81L1.12 10.18C1.12 10.43 1.33 10.64 1.58 10.64L6.43 10.64C6.69 10.64 6.90 10.43 6.90 10.18C6.90 9.91 6.69 9.70 6.43 9.70ZM14.70 9.70L14.70 9.70L9.72 9.70L9.72 0.81C9.72 0.56 9.51 0.35 9.25 0.35C8.99 0.35 8.78 0.56 8.78 0.81L8.78 10.18C8.78 10.43 8.99 10.64 9.25 10.64L14.70 10.64C14.97 10.64 15.16 10.43 15.16 10.18C15.16 9.91 14.97 9.70 14.70 9.70ZM10.65 0.81L10.65 0.81L10.65 8.30C10.65 8.55 10.86 8.76 11.12 8.76L14.70 8.76C14.97 8.76 15.16 8.55 15.16 8.30C15.16 8.04 14.97 7.83 14.70 7.83L11.59 7.83L11.59 0.81C11.59 0.56 11.38 0.35 11.12 0.35C10.86 0.35 10.65 0.56 10.65 0.81ZM24.85 5.03L24.85 5.03C26.73 5.03 26.73 2.23 24.85 2.23L23.20 2.23C22.58 2.23 22.58 3.16 23.20 3.16L24.85 3.16C25.49 3.16 25.49 4.10 24.85 4.10C24.49 4.10 23.86 3.99 23.86 4.56C23.86 5.12 24.49 5.03 24.85 5.03ZM21.80 10.16L21.80 10.16L21.80 1.29L25.02 1.29C28.03 1.29 28.03 5.96 25.02 5.96L23.20 5.96C22.95 5.96 22.72 6.17 22.72 6.43L22.72 10.16C22.72 10.78 23.67 10.78 23.67 10.16L23.67 6.90L25.02 6.90C29.25 6.90 29.26 0.36 25.02 0.36L21.32 0.36C21.07 0.36 20.86 0.56 20.86 0.84L20.86 10.16C20.86 10.78 21.80 10.78 21.80 10.16ZM35.70 9.70L35.70 9.70L30.72 9.70L30.72 0.81C30.72 0.56 30.51 0.35 30.25 0.35C29.99 0.35 29.78 0.56 29.78 0.81L29.78 10.18C29.78 10.43 29.99 10.64 30.25 10.64L35.70 10.64C35.97 10.64 36.16 10.43 36.16 10.18C36.16 9.91 35.97 9.70 35.70 9.70ZM31.65 0.81L31.65 0.81L31.65 8.30C31.65 8.55 31.86 8.76 32.12 8.76L35.70 8.76C35.97 8.76 36.16 8.55 36.16 8.30C36.16 8.04 35.97 7.83 35.70 7.83L32.59 7.83L32.59 0.81C32.59 0.56 32.38 0.35 32.12 0.35C31.86 0.35 31.65 0.56 31.65 0.81ZM40.59 7.84L40.59 7.84L41.94 7.84C42.21 7.84 42.43 7.63 42.43 7.36C42.43 7.29 42.42 7.24 42.39 7.18L41.71 5.50C41.61 5.28 41.34 5.17 41.09 5.26C40.87 5.35 40.75 5.63 40.84 5.87L41.26 6.90L40.59 6.90C40.33 6.90 40.12 7.10 40.12 7.36C40.12 7.63 40.33 7.84 40.59 7.84ZM39.90 10.26L39.90 10.26L40.14 9.72L42.41 9.72L42.63 10.26C42.73 10.51 43.01 10.61 43.25 10.53C43.48 10.42 43.58 10.15 43.50 9.91L43.16 9.10C43.11 8.92 42.92 8.76 42.71 8.76L39.82 8.76L39.82 8.76C39.65 8.76 39.47 8.89 39.38 9.06L39.05 9.91C38.95 10.15 39.06 10.42 39.30 10.53C39.55 10.61 39.82 10.50 39.90 10.26ZM37.90 10.26L37.90 10.26L41.27 1.76L44.65 10.26C44.74 10.50 45.02 10.61 45.26 10.53C45.50 10.42 45.61 10.15 45.51 9.91L41.71 0.36C41.66 0.25 41.58 0.14 41.44 0.10C41.22 0 40.94 0.11 40.84 0.36L37.02 9.91C36.93 10.15 37.06 10.42 37.28 10.53C37.52 10.61 37.79 10.50 37.90 10.26ZM47.88 10.18L47.88 10.18L47.88 0.81C47.88 0.56 47.68 0.36 47.42 0.36C47.17 0.36 46.96 0.56 46.96 0.81L46.96 10.18C46.96 10.43 47.17 10.65 47.42 10.65C47.68 10.65 47.88 10.43 47.88 10.18ZM55.52 10.18L55.52 10.18L55.52 0.81C55.52 0.56 55.31 0.36 55.05 0.36C54.80 0.36 54.59 0.56 54.59 0.81L54.59 10.18C54.59 10.43 54.80 10.65 55.05 10.65C55.31 10.65 55.52 10.43 55.52 10.18ZM53.75 9.91L53.75 9.91L49.67 4.09C49.53 3.86 49.22 3.81 49.03 3.98C48.89 4.06 48.83 4.20 48.83 4.35L48.83 10.18C48.83 10.43 49.03 10.64 49.28 10.64C49.55 10.64 49.76 10.43 49.76 10.18L49.76 5.84L52.98 10.44C53.13 10.65 53.41 10.71 53.63 10.57C53.83 10.40 53.89 10.12 53.75 9.91ZM48.73 1.09L48.73 1.09L52.79 6.92C52.95 7.13 53.23 7.18 53.44 7.03C53.58 6.94 53.65 6.79 53.65 6.64L53.65 0.81C53.65 0.56 53.44 0.36 53.19 0.36C52.93 0.36 52.71 0.56 52.71 0.81L52.71 5.17L49.49 0.56C49.35 0.35 49.06 0.28 48.85 0.45C48.64 0.59 48.58 0.87 48.73 1.09ZM67.93 3.88L67.93 3.88C67.58 2.77 66.88 1.83 65.97 1.16C65.06 0.52 63.97 0.14 62.76 0.14C55.66 0.14 55.66 10.82 62.76 10.82C63.97 10.82 65.06 10.43 65.97 9.79C66.88 9.13 67.58 8.18 67.93 7.08C68.00 6.83 67.87 6.55 67.62 6.48C67.37 6.41 67.09 6.54 67.02 6.79C66.72 7.70 66.16 8.47 65.39 9.02C64.67 9.55 63.76 9.86 62.76 9.86C56.92 9.86 56.92 1.09 62.76 1.09C63.76 1.09 64.67 1.41 65.39 1.93C66.16 2.49 66.72 3.26 67.02 4.16C67.09 4.41 67.37 4.55 67.62 4.47C67.87 4.40 68.00 4.13 67.93 3.88ZM59.88 7.17L59.88 7.17C60.17 7.69 60.59 8.12 61.10 8.43C61.60 8.71 62.17 8.88 62.76 8.88C63.70 8.88 64.54 8.50 65.16 7.87C65.74 7.25 66.12 6.41 66.12 5.47C66.12 4.54 65.74 3.70 65.16 3.08C64.54 2.46 63.70 2.09 62.76 2.09C62.17 2.09 61.60 2.24 61.10 2.53C60.59 2.83 60.17 3.26 59.88 3.78C59.74 4.02 59.82 4.31 60.05 4.44C60.28 4.56 60.56 4.48 60.69 4.24C60.91 3.88 61.22 3.57 61.59 3.36C61.94 3.15 62.33 3.04 62.76 3.04C63.43 3.04 64.04 3.32 64.46 3.75C64.90 4.19 65.17 4.80 65.17 5.47C65.17 6.16 64.90 6.78 64.46 7.21C64.04 7.66 63.43 7.92 62.76 7.92C62.33 7.92 61.92 7.80 61.59 7.59C61.22 7.39 60.91 7.07 60.69 6.71C60.56 6.47 60.28 6.40 60.05 6.52C59.82 6.66 59.74 6.93 59.88 7.17Z"></path>
  </g><!----><!---->
</svg>
